<?xml version="1.0" encoding="UTF-8" standalone="no"?>
<svg width="40px" height="40px" viewBox="0 0 40 40" version="1.1" xmlns="http://www.w3.org/2000/svg" xmlns:xlink="http://www.w3.org/1999/xlink" xmlns:sketch="http://www.bohemiancoding.com/sketch/ns">
    <!-- Generator: Sketch 3.3.2 (12043) - http://www.bohemiancoding.com/sketch -->
    <title>Shape + Shape</title>
    <desc>Created with Sketch.</desc>
    <defs></defs>
    <g id="Page-1" stroke="none" stroke-width="1" fill="none" fill-rule="evenodd" sketch:type="MSPage">
        <g id="Shape-+-Shape" sketch:type="MSLayerGroup">
            <path d="M20,39 L20,39 C30.4934102,39 39,30.4934102 39,20 C39,9.50658975 30.4934102,1 20,1 C9.50658975,1 1,9.50658975 1,20 C1,30.4934102 9.50658975,39 20,39 L20,39 Z M20,40 L20,40 C8.954305,40 0,31.045695 0,20 C0,8.954305 8.954305,0 20,0 C31.045695,0 40,8.954305 40,20 C40,31.045695 31.045695,40 20,40 L20,40 Z" id="Shape" fill="#000000" sketch:type="MSShapeGroup"></path>
            <path d="M20,20.7071068 L11.8535534,28.8535534 L11.5,29.2071068 L10.7928932,28.5 L11.1464466,28.1464466 L19.2928932,20 L11.1464466,11.8535534 L10.7928932,11.5 L11.5,10.7928932 L11.8535534,11.1464466 L20,19.2928932 L28.1464466,11.1464466 L28.5,10.7928932 L29.2071068,11.5 L28.8535534,11.8535534 L20.7071068,20 L28.8535534,28.1464466 L29.2071068,28.5 L28.5,29.2071068 L28.1464466,28.8535534 L20,20.7071068 Z" id="Shape" fill="#979797" sketch:type="MSShapeGroup"></path>
        </g>
    </g>
</svg>